<?xml version="1.0" encoding="UTF-8"?>
<svg width="800" height="1000" xmlns="http://www.w3.org/2000/svg">
  <defs>
    <style>
      .outline { fill: none; stroke: currentColor; stroke-width: 3; stroke-linecap: round; stroke-linejoin: round; }
      .outline-thin { fill: none; stroke: currentColor; stroke-width: 2; stroke-linecap: round; stroke-linejoin: round; }
    </style>
  </defs>
  
  <!-- Background -->
  <rect width="800" height="1000" fill="transparent"/>
  
  <!-- Jean Jacket Outline -->
  <!-- Main body -->
  <path class="outline" d="M 200 150 L 200 800 L 600 800 L 600 150" />
  
  <!-- Collar -->
  <path class="outline" d="M 200 150 Q 200 100 250 100 L 350 100 Q 400 100 400 150" />
  <path class="outline" d="M 400 150 Q 400 100 450 100 L 550 100 Q 600 100 600 150" />
  
  <!-- Front opening -->
  <line class="outline" x1="400" y1="150" x2="400" y2="800" />
  
  <!-- Sleeves -->
  <path class="outline" d="M 200 200 L 150 200 L 150 450 L 200 450" />
  <path class="outline" d="M 600 200 L 650 200 L 650 450 L 600 450" />
  
  <!-- Pockets -->
  <rect class="outline" x="250" y="550" width="120" height="100" rx="5" />
  <rect class="outline" x="430" y="550" width="120" height="100" rx="5" />
  
  <!-- Buttons -->
  <circle class="outline-thin" cx="420" cy="250" r="8" />
  <circle class="outline-thin" cx="420" cy="350" r="8" />
  <circle class="outline-thin" cx="420" cy="450" r="8" />
  <circle class="outline-thin" cx="420" cy="550" r="8" />
  <circle class="outline-thin" cx="420" cy="650" r="8" />
  
  <!-- Seams/details -->
  <line class="outline-thin" x1="250" y1="300" x2="350" y2="300" />
  <line class="outline-thin" x1="250" y1="400" x2="350" y2="400" />
  <line class="outline-thin" x1="450" y1="300" x2="550" y2="300" />
  <line class="outline-thin" x1="450" y1="400" x2="550" y2="400" />
  
  <!-- Bottom hem -->
  <line class="outline" x1="200" y1="800" x2="600" y2="800" />
</svg>
